<svg width="107" height="35" viewBox="0 0 107 35" fill="currentColor" xmlns="http://www.w3.org/2000/svg">
<path d="M15.9367 2.73207L13.9078 0.703159C13.4573 0.252698 12.8468 0 12.2101 0H0V3.20084H14.9421C15.3664 3.20084 15.7735 3.3693 16.0738 3.66961L18.1027 5.69852C18.5532 6.14898 19.1637 6.40168 19.8004 6.40168H32.0105V3.20084H17.0684C16.6441 3.20084 16.237 3.03237 15.9367 2.73207Z" fill="currentColor"/>
<path d="M15.9367 9.9347L13.9078 7.9058C13.4573 7.45533 12.8468 7.20264 12.2101 7.20264H0V10.4035H14.9421C15.3664 10.4035 15.7735 10.5719 16.0738 10.8722L18.1027 12.9012C18.5532 13.3516 19.1637 13.6043 19.8004 13.6043H32.0105V10.4035H17.0684C16.6441 10.4035 16.237 10.235 15.9367 9.9347Z" fill="currentColor"/>
<path d="M31.931 17.6056H17.0684C16.6441 17.6056 16.2365 17.4372 15.9367 17.1369L13.9078 15.1079C13.4573 14.6575 12.8468 14.4048 12.2101 14.4048H0V17.6056H14.9421C15.3664 17.6056 15.774 17.7741 16.0738 18.0744L18.1027 20.1033C18.5532 20.5538 19.1637 20.8065 19.8004 20.8065H31.931C31.9833 20.2801 32.0105 19.746 32.0105 19.206V17.6056H31.931Z" fill="currentColor"/>
<path d="M15.9369 24.3395L13.908 22.3106C13.4576 21.8601 12.847 21.6074 12.2103 21.6074H0.179688C0.346583 22.716 0.627533 23.787 1.00893 24.8083H14.9424C15.3667 24.8083 15.7737 24.9767 16.074 25.277L18.1029 27.3059C18.5534 27.7564 19.1639 28.0091 19.8007 28.0091H29.3733C30.0299 27.014 30.5782 25.9415 31.002 24.8083H17.0686C16.6443 24.8083 16.2372 24.6398 15.9369 24.3395Z" fill="currentColor"/>
<path d="M17.0712 32.0104C16.6469 32.0104 16.2398 31.8419 15.9395 31.5416L13.9106 29.5127C13.4601 29.0623 12.8496 28.8096 12.2129 28.8096H3.20312C4.11347 30.0218 5.19227 31.1001 6.40396 32.0104H14.9449C15.3692 32.0104 15.7763 32.1789 16.0766 32.4792L18.5973 34.9999C18.9358 34.9449 19.2706 34.8785 19.6018 34.8026C19.6154 34.8 19.6295 34.799 19.6431 34.7958C20.407 34.6185 21.1499 34.3851 21.8677 34.1026C21.8745 34.1 21.8813 34.0974 21.8881 34.0948C22.0309 34.0383 22.1733 33.9802 22.3145 33.9195C22.3187 33.9174 22.3234 33.9158 22.3276 33.9138C22.7597 33.728 23.1819 33.524 23.5932 33.3022C23.6225 33.2865 23.6512 33.2702 23.68 33.254C23.781 33.1986 23.882 33.1426 23.9819 33.085C24.0243 33.061 24.0661 33.0359 24.108 33.0113C24.1943 32.9605 24.2801 32.9092 24.3654 32.8569C24.4125 32.8281 24.459 32.7994 24.5056 32.7701C24.5862 32.7193 24.6662 32.6681 24.7457 32.6163C24.7928 32.5854 24.8399 32.555 24.8865 32.5237C24.9681 32.4692 25.0492 32.4133 25.1298 32.3573C25.1721 32.328 25.2145 32.2992 25.2564 32.2694C25.3673 32.1909 25.4766 32.1109 25.5855 32.0298C25.5949 32.023 25.6043 32.0162 25.6137 32.0088H17.0727L17.0712 32.0104Z" fill="currentColor"/>
<path d="M43.7282 8.95567H46.6534C48.0926 8.95567 48.8905 9.5657 48.8905 11.0521V12.0064C48.8905 12.7571 48.969 13.2735 49.0783 13.6178H50.3455C50.2518 13.2269 50.1419 12.7263 50.1419 11.9598V10.8648C50.1419 9.33184 49.4377 8.86254 48.4526 8.58107C49.6099 8.31529 50.4705 7.34531 50.4705 5.95312C50.4705 4.27945 49.4226 3.21582 47.2791 3.21582H42.4297V13.6183H43.7282V8.95672V8.95567ZM43.7282 4.26271H47.1383C48.4991 4.26271 49.1092 4.85705 49.1092 6.06142C49.1092 7.26579 48.5771 7.98569 47.1226 7.98569H43.7282V4.26271Z" fill="currentColor"/>
<path d="M59.149 11.2083H58.0069C57.7725 12.194 57.0683 12.9134 55.5353 12.9134C54.0024 12.9134 52.9388 12.1312 52.8446 9.98825H59.1333C59.1647 9.80043 59.1647 9.644 59.1647 9.441C59.1647 7.15731 57.8347 5.5459 55.4888 5.5459C52.8922 5.5459 51.6094 7.3603 51.6094 9.69108C51.6094 12.0219 52.7981 13.8677 55.4888 13.8677C58.1795 13.8677 58.9925 12.397 59.149 11.2083ZM55.5045 6.49966C56.9595 6.49966 57.8823 7.25043 57.9446 9.04966H52.876C53.0481 7.20387 54.0181 6.49966 55.504 6.49966H55.5045Z" fill="currentColor"/>
<path d="M65.943 11.7871C65.943 12.3657 65.9901 12.9444 66.0524 13.6172H67.1945C67.116 12.8507 67.1008 12.2407 67.1008 11.6772V7.92286C67.1008 6.51498 66.1309 5.5293 63.9879 5.5293C61.8449 5.5293 60.6557 6.59293 60.6092 8.25142H61.8449C61.9234 7.23488 62.5021 6.51498 64.035 6.51498C65.5679 6.51498 65.9593 7.12501 65.9593 7.92286C65.9593 8.5172 65.615 8.73641 64.7863 8.87715L62.7998 9.20571C61.1104 9.48718 60.4219 10.285 60.4219 11.5522C60.4219 13.0386 61.5012 13.8207 63.0027 13.8207C64.8171 13.8207 65.6464 12.7257 65.9436 11.7871H65.943ZM61.688 11.5051C61.688 10.6607 62.1887 10.2536 63.2523 10.0344L64.5508 9.76866C65.1452 9.64362 65.5674 9.51805 65.9587 9.23658V9.90939C65.9587 11.3958 65.0986 12.8345 63.2523 12.8345C62.3294 12.8345 61.688 12.3966 61.688 11.5051Z" fill="currentColor"/>
<path d="M70.2046 2.66699H68.9531V13.6172H70.2046V2.66699Z" fill="currentColor"/>
<path d="M73.5489 3.21484H71.9375V4.51339H73.5489V3.21484Z" fill="currentColor"/>
<path d="M73.3686 5.7959H72.1172V13.6175H73.3686V5.7959Z" fill="currentColor"/>
<path d="M76.0332 11.7871C76.0332 13.0385 76.4241 13.6172 77.9261 13.6172H79.7719V12.6001H77.2847V6.78072H79.8656V5.79504H77.2847V4.05859H76.6119L76.1426 5.6857L74.5469 6.07651V6.78072H76.0327V11.7865L76.0332 11.7871Z" fill="currentColor"/>
<path d="M84.9891 14.9155L88.665 5.7959H87.4293L85.0048 11.8183L84.7705 12.569L84.5047 11.8183L82.1111 5.7959H80.7969L83.8941 13.6175H84.332L83.4714 15.7291H81.297V16.7461H82.7829C84.1908 16.7461 84.5036 16.1675 84.9886 14.916L84.9891 14.9155Z" fill="currentColor"/>
<path d="M46.747 17.6548H42.4297V28.0573H46.747C50.1571 28.0573 51.5964 25.6951 51.5964 22.8322C51.5964 19.9694 50.1571 17.6543 46.747 17.6543V17.6548ZM46.5126 27.0093H43.7282V18.7028H46.5126C49.297 18.7028 50.2356 20.1891 50.2356 22.8328C50.2356 25.4764 49.2813 27.0093 46.5126 27.0093Z" fill="currentColor"/>
<path d="M60.3756 23.8809C60.3756 21.5972 59.0457 19.9858 56.6997 19.9858C54.1032 19.9858 52.8203 21.8002 52.8203 24.131C52.8203 26.4618 54.009 28.3076 56.6997 28.3076C59.3905 28.3076 60.2035 26.8369 60.3599 25.6483H59.2178C58.9834 26.6339 58.2792 27.3533 56.7463 27.3533C55.2134 27.3533 54.1497 26.5712 54.0556 24.4282H60.3442C60.3756 24.2404 60.3756 24.0839 60.3756 23.8809ZM54.0869 23.4896C54.2591 21.6438 55.2291 20.9396 56.7149 20.9396C58.2007 20.9396 59.0928 21.6904 59.155 23.4896H54.0864H54.0869Z" fill="currentColor"/>
<path d="M62.3611 18.6869V20.189L61.0469 20.5175V21.2217H62.3611V28.0577H63.6126V21.2217H65.8963V20.2361H63.5184V18.0617H66.3342V17.1074H64.3476C62.8461 17.1074 62.3611 17.6395 62.3611 18.6874V18.6869Z" fill="currentColor"/>
<path d="M74.0553 23.8809C74.0553 21.5972 72.7254 19.9858 70.3794 19.9858C67.7828 19.9858 66.5 21.8002 66.5 24.131C66.5 26.4618 67.6887 28.3076 70.3794 28.3076C73.0701 28.3076 73.8832 26.8369 74.0396 25.6483H72.8975C72.6631 26.6339 71.9589 27.3533 70.426 27.3533C68.893 27.3533 67.8294 26.5712 67.7352 24.4282H74.0239C74.0553 24.2404 74.0553 24.0839 74.0553 23.8809ZM67.7666 23.4896C67.9388 21.6438 68.9087 20.9396 70.3946 20.9396C71.8804 20.9396 72.7724 21.6904 72.8347 23.4896H67.7661H67.7666Z" fill="currentColor"/>
<path d="M79.8879 19.9858C78.3392 19.9858 77.3693 20.8617 76.8843 22.2852V20.2359H75.6328V28.0575H76.8843V25.0696C76.8843 22.3789 77.8072 21.0338 79.5436 21.0338C80.6857 21.0338 81.4208 21.5345 81.4208 23.2081V28.0575H82.6722V23.0674C82.6722 21.0495 81.843 19.9858 79.8879 19.9858Z" fill="currentColor"/>
<path d="M90.7263 21.722C90.1942 20.6113 89.209 19.9855 87.7697 19.9855C85.3139 19.9855 84.1875 21.7377 84.1875 24.1464C84.1875 26.5551 85.3139 28.3073 87.7697 28.3073C89.209 28.3073 90.1942 27.6659 90.7263 26.5551V28.0567H91.9777V17.1064H90.7263V21.7209V21.722ZM88.0198 27.2907C86.2368 27.2907 85.4541 26.2428 85.4541 24.1464C85.4541 22.05 86.2363 21.0021 88.0198 21.0021C89.6778 21.0021 90.7263 21.9407 90.7263 24.1464C90.7263 26.3522 89.6783 27.2907 88.0198 27.2907Z" fill="currentColor"/>
<path d="M100.915 23.8809C100.915 21.5972 99.5847 19.9858 97.2388 19.9858C94.6422 19.9858 93.3594 21.8002 93.3594 24.131C93.3594 26.4618 94.5481 28.3076 97.2388 28.3076C99.9295 28.3076 100.743 26.8369 100.9 25.6483H99.7574C99.5225 26.6339 98.8188 27.3533 97.2859 27.3533C95.7529 27.3533 94.6893 26.5712 94.5951 24.4282H100.884C100.915 24.2404 100.915 24.0839 100.915 23.8809H100.915ZM94.6265 23.4896C94.7987 21.6438 95.7686 20.9396 97.2545 20.9396C98.7403 20.9396 99.6323 21.6904 99.6946 23.4896H94.626H94.6265Z" fill="currentColor"/>
<path d="M106.607 20.1265C105.12 20.1265 104.213 21.0023 103.744 22.3009V20.2358H102.492V28.0574H103.744V25.1789C103.744 22.9731 104.244 21.2838 106.559 21.3617H106.888V20.126H106.607V20.1265Z" fill="currentColor"/>
</svg>
